<svg width="14" height="20" viewBox="0 0 14 20" fill="none" xmlns="http://www.w3.org/2000/svg">
<g clip-path="url(#clip0_57_278)">
<path d="M11.2114 10.685C11.2877 10.6085 11.3501 10.5062 11.3933 10.3869C11.4364 10.2676 11.4589 10.1348 11.4589 9.99999C11.4589 9.86518 11.4364 9.7324 11.3933 9.61307C11.3501 9.49374 11.2877 9.39144 11.2114 9.31499L3.76347 1.81499C3.67756 1.72818 3.57695 1.67727 3.47255 1.66779C3.36815 1.65832 3.26396 1.69064 3.1713 1.76125C3.07864 1.83186 3.00106 1.93805 2.94698 2.06829C2.8929 2.19853 2.8644 2.34784 2.86456 2.49999L2.86456 17.5C2.86499 17.6518 2.89387 17.8005 2.94807 17.9303C3.00228 18.06 3.07977 18.1657 3.17222 18.2362C3.26466 18.3066 3.36856 18.3391 3.47273 18.3301C3.57691 18.321 3.67742 18.2709 3.76347 18.185L11.2114 10.685Z" fill="white"/>
</g>
<defs>
<clipPath id="clip0_57_278">
<rect width="20" height="13.75" fill="white" transform="matrix(0 -1 1 0 0 20)"/>
</clipPath>
</defs>
</svg>
