<svg width="19" height="18" viewBox="0 0 19 18" fill="none" xmlns="http://www.w3.org/2000/svg">
<path d="M9.24477 0.0869141C7.46172 0.0869141 5.71871 0.598595 4.23615 1.55725C2.7536 2.51591 1.59809 3.87848 0.915743 5.47267C0.233398 7.06686 0.0548658 8.82105 0.402722 10.5134C0.750579 12.2058 1.6092 13.7604 2.87001 14.9805C4.13082 16.2006 5.73719 17.0316 7.48598 17.3682C9.23477 17.7048 11.0474 17.5321 12.6948 16.8717C14.3421 16.2114 15.7501 15.0932 16.7407 13.6584C17.7313 12.2237 18.26 10.5369 18.26 8.81138C18.26 6.4975 17.3102 4.2784 15.6195 2.64225C13.9288 1.0061 11.6358 0.0869141 9.24477 0.0869141ZM14.0403 9.36912L6.31288 13.1082C6.21468 13.1557 6.10556 13.1781 5.9959 13.1733C5.88623 13.1685 5.77966 13.1366 5.6863 13.0807C5.59293 13.0248 5.51588 12.9468 5.46247 12.854C5.40905 12.7612 5.38103 12.6567 5.38108 12.5504V5.07232C5.38114 4.96614 5.40924 4.86173 5.4627 4.769C5.51616 4.67628 5.59322 4.59831 5.68657 4.5425C5.77991 4.48669 5.88645 4.45489 5.99606 4.45011C6.10567 4.44533 6.21473 4.46774 6.31288 4.5152L14.0403 8.25426C14.1471 8.30607 14.2369 8.38562 14.2997 8.48401C14.3624 8.5824 14.3957 8.69575 14.3957 8.81138C14.3957 8.92701 14.3624 9.04036 14.2997 9.13875C14.2369 9.23714 14.1471 9.31668 14.0403 9.36849V9.36912Z" fill="#F8F8F8"/>
</svg>
