<svg width="19" height="24" viewBox="0 0 19 24" fill="none" xmlns="http://www.w3.org/2000/svg">
<path d="M9.15098 0.503418C6.0584 0.503418 3.54239 3.09617 3.54239 6.28306V9.75085H2.42068C1.82568 9.75085 1.25506 9.99442 0.834332 10.428C0.413607 10.8615 0.177246 11.4496 0.177246 12.0627V21.3101C0.177246 21.9233 0.413607 22.5113 0.834332 22.9449C1.25506 23.3784 1.82568 23.622 2.42068 23.622H15.8813C16.4763 23.622 17.0469 23.3784 17.4676 22.9449C17.8883 22.5113 18.1247 21.9233 18.1247 21.3101V12.0627C18.1247 11.4496 17.8883 10.8615 17.4676 10.428C17.0469 9.99442 16.4763 9.75085 15.8813 9.75085H14.7596V6.28306C14.7596 3.09617 12.2435 0.503418 9.15098 0.503418ZM5.78583 6.28306C5.78583 4.37116 7.29566 2.81528 9.15098 2.81528C11.0063 2.81528 12.5161 4.37116 12.5161 6.28306V9.75085H5.78583V6.28306ZM10.2727 18.6781V21.3101H8.02926V18.6781C7.63709 18.4467 7.32219 18.0982 7.12609 17.6786C6.92998 17.2591 6.86187 16.7881 6.93075 16.3278C6.99962 15.8676 7.20224 15.4396 7.51189 15.1004C7.82153 14.7612 8.22367 14.5267 8.66527 14.4277C8.99328 14.353 9.33339 14.3551 9.66051 14.4339C9.98763 14.5126 10.2934 14.666 10.5553 14.8828C10.8173 15.0996 11.0286 15.3742 11.1738 15.6863C11.3191 15.9985 11.3944 16.3403 11.3944 16.6864C11.3938 17.0907 11.2897 17.4877 11.0928 17.8373C10.8959 18.187 10.613 18.477 10.2727 18.6781Z" fill="#F8F8F8"/>
</svg>
